<?xml version="1.0" standalone="no"?><!DOCTYPE svg PUBLIC "-//W3C//DTD SVG 1.1//EN" "http://www.w3.org/Graphics/SVG/1.1/DTD/svg11.dtd"><svg t="1771326135334" class="icon" viewBox="0 0 1024 1024" version="1.1" xmlns="http://www.w3.org/2000/svg" p-id="31538" xmlns:xlink="http://www.w3.org/1999/xlink" width="200" height="200"><path d="M458.8 630.9c-53.2-19.5-92.3-72.7-92.3-134.4 0-81.2 64.3-145.5 145.5-145.5s145.5 64.3 145.5 145.5c0 61.7-36.4 111.8-92.3 134.4l59 336.2c-47.5 8.4-86.9 11.1-111.8 11.1-25.3 0-64.3-2.7-111.8-11.1l58.2-336.2z" fill="#0A3667" p-id="31539"></path><path d="M738.7 882.9l-83.8-145.5C738.7 686.8 792 594.6 792 493.9 792 340 666 214 512.1 214S232.2 340 232.2 493.9c0 98 50.6 187.6 134.4 238.2l-86.9 145.5C147.8 799 64 650.4 64 493.9c0-246.2 201.4-448 448-448s448 201.8 448 448c0 162.3-83.8 310.9-221.3 389z" fill="#F48221" p-id="31540"></path></svg>